<mxfile host="app.diagrams.net" agent="Mozilla/5.0 (Windows NT 10.0; Win64; x64) AppleWebKit/537.36 (KHTML, like Gecko) Chrome/137.0.0.0 Safari/537.36" version="27.1.6">
  <diagram name="Pagina-1" id="elPKTJKnw0VPbhu4x-Od">
    <mxGraphModel dx="1426" dy="785" grid="1" gridSize="10" guides="1" tooltips="1" connect="1" arrows="1" fold="1" page="1" pageScale="1" pageWidth="827" pageHeight="1169" math="0" shadow="0">
      <root>
        <mxCell id="0" />
        <mxCell id="1" parent="0" />
        <mxCell id="DzJusFSu3gZTGhXIlLWw-7" style="edgeStyle=orthogonalEdgeStyle;rounded=0;orthogonalLoop=1;jettySize=auto;html=1;exitX=1;exitY=0.5;exitDx=0;exitDy=0;entryX=0;entryY=0.5;entryDx=0;entryDy=0;" edge="1" parent="1" source="DzJusFSu3gZTGhXIlLWw-1" target="DzJusFSu3gZTGhXIlLWw-2">
          <mxGeometry relative="1" as="geometry" />
        </mxCell>
        <mxCell id="DzJusFSu3gZTGhXIlLWw-8" value="HTTP: PID, power, commands" style="edgeLabel;html=1;align=center;verticalAlign=middle;resizable=0;points=[];" vertex="1" connectable="0" parent="DzJusFSu3gZTGhXIlLWw-7">
          <mxGeometry x="-0.05" relative="1" as="geometry">
            <mxPoint y="-8" as="offset" />
          </mxGeometry>
        </mxCell>
        <mxCell id="DzJusFSu3gZTGhXIlLWw-1" value="Web server" style="rounded=0;whiteSpace=wrap;html=1;" vertex="1" parent="1">
          <mxGeometry x="40" y="40" width="120" height="60" as="geometry" />
        </mxCell>
        <mxCell id="DzJusFSu3gZTGhXIlLWw-9" style="edgeStyle=orthogonalEdgeStyle;rounded=0;orthogonalLoop=1;jettySize=auto;html=1;exitX=1;exitY=0.5;exitDx=0;exitDy=0;entryX=0;entryY=0.5;entryDx=0;entryDy=0;" edge="1" parent="1" source="DzJusFSu3gZTGhXIlLWw-2" target="DzJusFSu3gZTGhXIlLWw-4">
          <mxGeometry relative="1" as="geometry" />
        </mxCell>
        <mxCell id="DzJusFSu3gZTGhXIlLWw-10" value="PWM: Motor power" style="edgeLabel;html=1;align=center;verticalAlign=middle;resizable=0;points=[];" vertex="1" connectable="0" parent="DzJusFSu3gZTGhXIlLWw-9">
          <mxGeometry relative="1" as="geometry">
            <mxPoint y="-8" as="offset" />
          </mxGeometry>
        </mxCell>
        <mxCell id="DzJusFSu3gZTGhXIlLWw-2" value="PID controller" style="rounded=0;whiteSpace=wrap;html=1;" vertex="1" parent="1">
          <mxGeometry x="360" y="40" width="120" height="60" as="geometry" />
        </mxCell>
        <mxCell id="DzJusFSu3gZTGhXIlLWw-12" style="edgeStyle=orthogonalEdgeStyle;rounded=0;orthogonalLoop=1;jettySize=auto;html=1;exitX=1;exitY=0.5;exitDx=0;exitDy=0;entryX=0.5;entryY=1;entryDx=0;entryDy=0;" edge="1" parent="1" source="DzJusFSu3gZTGhXIlLWw-3" target="DzJusFSu3gZTGhXIlLWw-2">
          <mxGeometry relative="1" as="geometry" />
        </mxCell>
        <mxCell id="DzJusFSu3gZTGhXIlLWw-13" value="I2C: Pitch/Roll data" style="edgeLabel;html=1;align=center;verticalAlign=middle;resizable=0;points=[];" vertex="1" connectable="0" parent="DzJusFSu3gZTGhXIlLWw-12">
          <mxGeometry x="-0.6514" relative="1" as="geometry">
            <mxPoint x="33" y="-8" as="offset" />
          </mxGeometry>
        </mxCell>
        <mxCell id="DzJusFSu3gZTGhXIlLWw-27" style="edgeStyle=orthogonalEdgeStyle;rounded=0;orthogonalLoop=1;jettySize=auto;html=1;exitX=0.5;exitY=1;exitDx=0;exitDy=0;entryX=0.5;entryY=0;entryDx=0;entryDy=0;" edge="1" parent="1" source="DzJusFSu3gZTGhXIlLWw-3" target="DzJusFSu3gZTGhXIlLWw-5">
          <mxGeometry relative="1" as="geometry" />
        </mxCell>
        <mxCell id="DzJusFSu3gZTGhXIlLWw-41" value="Pitch: x, Roll: y" style="edgeLabel;html=1;align=center;verticalAlign=middle;resizable=0;points=[];" vertex="1" connectable="0" parent="DzJusFSu3gZTGhXIlLWw-27">
          <mxGeometry x="-0.05" relative="1" as="geometry">
            <mxPoint as="offset" />
          </mxGeometry>
        </mxCell>
        <mxCell id="DzJusFSu3gZTGhXIlLWw-3" value="MPU6050" style="rounded=0;whiteSpace=wrap;html=1;" vertex="1" parent="1">
          <mxGeometry x="40" y="160" width="120" height="60" as="geometry" />
        </mxCell>
        <mxCell id="DzJusFSu3gZTGhXIlLWw-4" value="Motors" style="rounded=0;whiteSpace=wrap;html=1;" vertex="1" parent="1">
          <mxGeometry x="680" y="40" width="120" height="60" as="geometry" />
        </mxCell>
        <mxCell id="DzJusFSu3gZTGhXIlLWw-15" style="edgeStyle=orthogonalEdgeStyle;rounded=0;orthogonalLoop=1;jettySize=auto;html=1;exitX=1;exitY=0.5;exitDx=0;exitDy=0;entryX=0;entryY=0.5;entryDx=0;entryDy=0;" edge="1" parent="1" source="DzJusFSu3gZTGhXIlLWw-5" target="DzJusFSu3gZTGhXIlLWw-6">
          <mxGeometry relative="1" as="geometry" />
        </mxCell>
        <mxCell id="DzJusFSu3gZTGhXIlLWw-16" value="UDP: Pitch: x, Roll: y" style="edgeLabel;html=1;align=center;verticalAlign=middle;resizable=0;points=[];" vertex="1" connectable="0" parent="DzJusFSu3gZTGhXIlLWw-15">
          <mxGeometry x="-0.05" relative="1" as="geometry">
            <mxPoint y="-8" as="offset" />
          </mxGeometry>
        </mxCell>
        <mxCell id="DzJusFSu3gZTGhXIlLWw-5" value="Telemetry broadcast (drone)" style="rounded=0;whiteSpace=wrap;html=1;" vertex="1" parent="1">
          <mxGeometry x="40" y="340" width="120" height="60" as="geometry" />
        </mxCell>
        <mxCell id="DzJusFSu3gZTGhXIlLWw-29" style="edgeStyle=orthogonalEdgeStyle;rounded=0;orthogonalLoop=1;jettySize=auto;html=1;exitX=0.5;exitY=1;exitDx=0;exitDy=0;entryX=0.5;entryY=0;entryDx=0;entryDy=0;" edge="1" parent="1" source="DzJusFSu3gZTGhXIlLWw-6" target="DzJusFSu3gZTGhXIlLWw-28">
          <mxGeometry relative="1" as="geometry" />
        </mxCell>
        <mxCell id="DzJusFSu3gZTGhXIlLWw-30" value="UDP: EMERGENCY_STOP" style="edgeLabel;html=1;align=center;verticalAlign=middle;resizable=0;points=[];" vertex="1" connectable="0" parent="DzJusFSu3gZTGhXIlLWw-29">
          <mxGeometry x="-0.05" relative="1" as="geometry">
            <mxPoint as="offset" />
          </mxGeometry>
        </mxCell>
        <mxCell id="DzJusFSu3gZTGhXIlLWw-37" style="edgeStyle=orthogonalEdgeStyle;rounded=0;orthogonalLoop=1;jettySize=auto;html=1;exitX=1;exitY=0.25;exitDx=0;exitDy=0;entryX=0;entryY=0.25;entryDx=0;entryDy=0;" edge="1" parent="1" source="DzJusFSu3gZTGhXIlLWw-6" target="DzJusFSu3gZTGhXIlLWw-17">
          <mxGeometry relative="1" as="geometry" />
        </mxCell>
        <mxCell id="DzJusFSu3gZTGhXIlLWw-38" value="I2C: Pitch: x, Roll: y" style="edgeLabel;html=1;align=center;verticalAlign=middle;resizable=0;points=[];" vertex="1" connectable="0" parent="DzJusFSu3gZTGhXIlLWw-37">
          <mxGeometry x="0.0125" relative="1" as="geometry">
            <mxPoint x="-2" y="-8" as="offset" />
          </mxGeometry>
        </mxCell>
        <mxCell id="DzJusFSu3gZTGhXIlLWw-39" style="edgeStyle=orthogonalEdgeStyle;rounded=0;orthogonalLoop=1;jettySize=auto;html=1;exitX=1;exitY=0.75;exitDx=0;exitDy=0;entryX=0;entryY=0.75;entryDx=0;entryDy=0;" edge="1" parent="1" source="DzJusFSu3gZTGhXIlLWw-6" target="DzJusFSu3gZTGhXIlLWw-17">
          <mxGeometry relative="1" as="geometry" />
        </mxCell>
        <mxCell id="DzJusFSu3gZTGhXIlLWw-40" value="I2C: Emergency Stop Triggered!" style="edgeLabel;html=1;align=center;verticalAlign=middle;resizable=0;points=[];" vertex="1" connectable="0" parent="DzJusFSu3gZTGhXIlLWw-39">
          <mxGeometry x="0.0125" relative="1" as="geometry">
            <mxPoint y="7" as="offset" />
          </mxGeometry>
        </mxCell>
        <mxCell id="DzJusFSu3gZTGhXIlLWw-6" value="Telemetry controller (ESP32)" style="rounded=0;whiteSpace=wrap;html=1;" vertex="1" parent="1">
          <mxGeometry x="360" y="340" width="120" height="60" as="geometry" />
        </mxCell>
        <mxCell id="DzJusFSu3gZTGhXIlLWw-17" value="LCD" style="rounded=0;whiteSpace=wrap;html=1;" vertex="1" parent="1">
          <mxGeometry x="680" y="340" width="120" height="60" as="geometry" />
        </mxCell>
        <mxCell id="DzJusFSu3gZTGhXIlLWw-21" style="edgeStyle=orthogonalEdgeStyle;rounded=0;orthogonalLoop=1;jettySize=auto;html=1;exitX=0;exitY=0.5;exitDx=0;exitDy=0;entryX=0.5;entryY=0;entryDx=0;entryDy=0;" edge="1" parent="1" source="DzJusFSu3gZTGhXIlLWw-20" target="DzJusFSu3gZTGhXIlLWw-6">
          <mxGeometry relative="1" as="geometry" />
        </mxCell>
        <mxCell id="DzJusFSu3gZTGhXIlLWw-33" value="Interrupt: Emergency trigger" style="edgeLabel;html=1;align=center;verticalAlign=middle;resizable=0;points=[];" vertex="1" connectable="0" parent="DzJusFSu3gZTGhXIlLWw-21">
          <mxGeometry x="-0.4118" relative="1" as="geometry">
            <mxPoint y="-8" as="offset" />
          </mxGeometry>
        </mxCell>
        <mxCell id="DzJusFSu3gZTGhXIlLWw-20" value="Button" style="rounded=0;whiteSpace=wrap;html=1;" vertex="1" parent="1">
          <mxGeometry x="680" y="190" width="120" height="60" as="geometry" />
        </mxCell>
        <mxCell id="DzJusFSu3gZTGhXIlLWw-32" style="edgeStyle=orthogonalEdgeStyle;rounded=0;orthogonalLoop=1;jettySize=auto;html=1;exitX=1;exitY=0.5;exitDx=0;exitDy=0;entryX=0;entryY=0.5;entryDx=0;entryDy=0;" edge="1" parent="1" source="DzJusFSu3gZTGhXIlLWw-28" target="DzJusFSu3gZTGhXIlLWw-31">
          <mxGeometry relative="1" as="geometry" />
        </mxCell>
        <mxCell id="DzJusFSu3gZTGhXIlLWw-42" value="Command: emergency stop" style="edgeLabel;html=1;align=center;verticalAlign=middle;resizable=0;points=[];" vertex="1" connectable="0" parent="DzJusFSu3gZTGhXIlLWw-32">
          <mxGeometry relative="1" as="geometry">
            <mxPoint x="-2" y="-8" as="offset" />
          </mxGeometry>
        </mxCell>
        <mxCell id="DzJusFSu3gZTGhXIlLWw-28" value="UDP listener (drone)" style="rounded=0;whiteSpace=wrap;html=1;" vertex="1" parent="1">
          <mxGeometry x="360" y="520" width="120" height="60" as="geometry" />
        </mxCell>
        <mxCell id="DzJusFSu3gZTGhXIlLWw-31" value="PID controller (sleep mode)" style="rounded=0;whiteSpace=wrap;html=1;" vertex="1" parent="1">
          <mxGeometry x="680" y="520" width="120" height="60" as="geometry" />
        </mxCell>
      </root>
    </mxGraphModel>
  </diagram>
</mxfile>
